# xmcd CD database file
#
# Track frame offsets:
#	150
#	21739
#	41779
#	60807
#	78934
#	96487
#	117255
#	134820
#	155249
#	175190
#	197358
#
# Disc length: 2918 seconds
#
# Revision: 0
# Processed by: cddbd v1.5.2PL0 Copyright (c) Steve Scherf et al.
# Submitted via: CDex 1.51
#
DISCID=990b640b
DTITLE=Gregory Charles - I Think of You
DYEAR=2006
DGENRE=Jazz
TTITLE0=I Think of You
TTITLE1=Our House
TTITLE2=I Put My Trust in You
TTITLE3=Unlabel'ble
TTITLE4=Promise That You Love Me
TTITLE5=No Love
TTITLE6=Your Love Will Lead Me Back to You
TTITLE7=You Are Near
TTITLE8='Til the Day I Die
TTITLE9=Life Goes On
TTITLE10=Sólo Pienso en Ti [Prima Dell'alba]
EXTD=YEAR: 2006
EXTT0=
EXTT1=
EXTT2=
EXTT3=
EXTT4=
EXTT5=
EXTT6=
EXTT7=
EXTT8=
EXTT9=
EXTT10=
PLAYORDER=
